<svg id="Grupo_7" data-name="Grupo 7" xmlns="http://www.w3.org/2000/svg" xmlns:xlink="http://www.w3.org/1999/xlink" width="90.991" height="29.721" viewBox="0 0 90.991 29.721">
  <defs>
    <clipPath id="clip-path">
      <rect id="Rectángulo_3" data-name="Rectángulo 3" width="90.991" height="29.721" fill="none"/>
    </clipPath>
  </defs>
  <g id="Grupo_6" data-name="Grupo 6" clip-path="url(#clip-path)">
    <path id="Trazado_1" data-name="Trazado 1" d="M251.069,54.907a.47.47,0,0,0,.5-.49V40.067h4.872a.466.466,0,0,0,.488-.488V37.6a.464.464,0,0,0-.488-.488H243.461a.464.464,0,0,0-.489.488v1.982a.465.465,0,0,0,.489.488h4.874V54.417a.466.466,0,0,0,.488.49Zm22.216-.622c.291.31.111.622-.243.622h-2.826a.924.924,0,0,1-.827-.378l-1.69-1.87a6.214,6.214,0,0,1-5.345,2.649c-3.248,0-5.806-1.958-5.806-5.319,0-2.578,1.382-3.959,3.473-5.118a5.46,5.46,0,0,1-1.495-3.514,4.507,4.507,0,0,1,4.854-4.651c2.982,0,4.807,1.759,4.807,4.362,0,2.226-1.6,3.468-3.293,4.407l2.495,2.689,1.4-2.449a.75.75,0,0,1,.731-.4h2.16c.353,0,.555.243.335.621l-2.5,4.274,3.762,4.072m-9.86-14.818A1.666,1.666,0,0,0,261.6,41.18a3.627,3.627,0,0,0,1.313,2.4c1.58-.915,2.25-1.467,2.25-2.446a1.593,1.593,0,0,0-1.738-1.668m-1,13.039a3.6,3.6,0,0,0,3.161-1.871l-3.6-3.872c-1.382.781-2.275,1.559-2.275,3.115a2.64,2.64,0,0,0,2.719,2.628m-17.292,1.825a.405.405,0,0,1-.377.576h-2.317a.626.626,0,0,1-.645-.468l-1.312-3.781H233.29l-1.312,3.781a.623.623,0,0,1-.645.468h-2.181a.416.416,0,0,1-.381-.576l6.036-16.78a.6.6,0,0,1,.642-.443h2.983a.628.628,0,0,1,.667.443l6.033,16.78m-5.677-6.587L236.9,40.4l-2.582,7.345ZM276.8,54.907a.466.466,0,0,1-.488-.49V40.067h-4.874a.467.467,0,0,1-.492-.488V37.6a.466.466,0,0,1,.492-.488h12.976a.464.464,0,0,1,.488.488v1.982a.465.465,0,0,1-.488.488h-4.876V54.417a.465.465,0,0,1-.488.49H276.8" transform="translate(-193.914 -31.118)" fill="#221d1b"/>
    <path id="Trazado_2" data-name="Trazado 2" d="M22.47,2.1a14.853,14.853,0,0,0-15.314.06C6.487,2.57,6.11,2.9,6.11,3.324c0,1.256,2.931,2.6,8.123,2.6,5.147,0,9.135-1.476,9.135-2.9,0-.342-.3-.579-.9-.936m2.212,1.65a.6.6,0,0,1,.094.343c0,1.653-5.052,4.574-13.1,4.574-5.907,0-7.012-2.2-7.012-3.591a2.4,2.4,0,0,1,.609-1.524c.022-.032,0-.046-.024-.021A15.151,15.151,0,0,0,3.158,5.7a1.871,1.871,0,0,0-.478.9c0,2.889,7.247,4.986,14.022,4.986,7.216,0,10.437-2.359,10.437-4.428,0-.739-.286-1.172-1.023-2.01a17.247,17.247,0,0,0-1.41-1.427c-.024-.017-.042,0-.024.021M1.434,8.486a14.418,14.418,0,0,0-1.06,3.08.99.99,0,0,0,.073.718c.914,1.937,5.524,5.032,16.287,5.032,6.56,0,11.661-1.611,12.488-4.553a3.484,3.484,0,0,0-.034-1.888,14.251,14.251,0,0,0-.974-2.569c-.011-.023-.031-.02-.031.007.132,3.859-10.635,6.348-16.065,6.348-5.883,0-10.789-2.345-10.789-5.3A3.405,3.405,0,0,1,1.463,8.5c.007-.032-.018-.035-.029-.009M11.877,20.815c-7.61,0-11.192-3.541-11.845-5.959-.007-.035-.032-.028-.032,0a14.482,14.482,0,0,0,.224,2.565A3.01,3.01,0,0,0,.97,18.719c1.842,1.918,6.438,4.609,14.393,4.609,10.834,0,13.315-3.608,13.817-4.793a10.8,10.8,0,0,0,.551-3.675c0-.314-.007-.562-.017-.806,0-.043-.025-.043-.032,0-.544,2.9-9.8,6.765-17.805,6.765m4,6.542c3.659,0,7.679-1,10.083-2.972a8.05,8.05,0,0,0,1.849-2.215,14.349,14.349,0,0,0,.894-1.856c.011-.031-.007-.049-.032-.015-2.233,3.291-8.709,5.343-15.395,5.343-4.728,0-9.811-1.508-11.8-4.4-.02-.025-.038-.014-.027.017C3.3,25.2,8.922,27.357,15.873,27.357M5.751,26.6a14.856,14.856,0,0,0,18.907-.561c.032-.028.018-.046-.013-.028A18.076,18.076,0,0,1,14.868,28.5a18.6,18.6,0,0,1-9.1-1.929c-.031-.018-.045.006-.021.027" fill="#2694cd"/>
  </g>
</svg>
