<?xml version="1.0" standalone="no"?>
<!DOCTYPE svg PUBLIC "-//W3C//DTD SVG 20010904//EN"
 "http://www.w3.org/TR/2001/REC-SVG-20010904/DTD/svg10.dtd">
<svg version="1.0" xmlns="http://www.w3.org/2000/svg"
 width="920.000000pt" height="920.000000pt" viewBox="0 0 920.000000 920.000000"
 preserveAspectRatio="xMidYMid meet">

<g transform="translate(0.000000,920.000000) scale(0.100000,-0.100000)"
fill="#000000" stroke="none">
<path d="M7023 8378 c20 -24 48 -69 62 -99 23 -52 28 -57 92 -83 79 -32 271
-140 352 -197 l56 -40 -54 51 c-101 97 -330 273 -485 374 l-59 38 36 -44z"/>
<path d="M1720 7841 c-240 -112 -367 -179 -374 -198 -9 -23 -36 -150 -36 -168
0 -9 55 13 157 62 150 72 414 185 498 214 22 7 42 14 44 16 2 1 -12 15 -31 32
-19 17 -47 48 -63 71 -15 22 -33 40 -39 39 -6 0 -76 -31 -156 -68z"/>
<path d="M6831 7785 c-312 -218 -963 -407 -1649 -480 -35 -4 -62 -8 -60 -10 2
-1 43 -6 92 -10 49 -4 98 -8 110 -10 11 -2 44 -6 71 -10 455 -54 1167 -174
1363 -231 l53 -15 127 67 c237 125 447 275 548 390 46 53 124 169 124 185 0
15 -323 102 -460 124 -19 3 -57 10 -85 15 -27 5 -70 12 -95 15 -25 3 -52 8
-60 10 -8 3 -44 -15 -79 -40z"/>
<path d="M2545 7390 c-347 -106 -612 -200 -887 -318 -87 -37 -158 -71 -158
-77 0 -15 134 -136 145 -131 315 142 851 314 1125 361 19 3 67 12 105 20 61
12 180 32 295 49 19 3 72 9 118 12 45 4 81 9 78 11 -2 2 -59 13 -127 23 -149
23 -306 54 -411 81 -42 10 -87 19 -100 18 -12 0 -95 -22 -183 -49z"/>
<path d="M3433 7303 c9 -2 23 -2 30 0 6 3 -1 5 -18 5 -16 0 -22 -2 -12 -5z"/>
<path d="M8200 7278 c0 -3 11 -30 25 -60 85 -186 86 -380 1 -576 -20 -46 -36
-85 -36 -87 0 -2 37 -25 83 -51 45 -26 114 -69 154 -96 40 -26 74 -48 77 -48
12 0 29 125 30 215 1 114 -17 183 -85 316 -48 96 -249 408 -249 387z"/>
<path d="M3858 7263 c7 -3 16 -2 19 1 4 3 -2 6 -13 5 -11 0 -14 -3 -6 -6z"/>
<path d="M5088 7025 c-2 -1 -59 -6 -128 -9 -69 -4 -141 -9 -160 -11 -19 -1
-71 -6 -114 -10 -43 -4 -86 -8 -95 -10 -9 -1 -47 -6 -86 -9 -38 -4 -81 -9 -95
-11 -14 -2 -50 -7 -80 -10 -30 -4 -62 -9 -70 -10 -8 -2 -42 -6 -75 -10 -33 -3
-127 -18 -210 -31 -82 -14 -166 -27 -185 -30 -19 -3 -42 -7 -50 -9 -8 -3 -33
-7 -55 -10 -235 -34 -745 -158 -1075 -260 -118 -37 -226 -71 -240 -75 -23 -6
-20 -9 28 -23 65 -20 260 -63 324 -72 36 -6 75 0 170 25 68 18 130 34 138 35
168 35 295 60 360 70 53 8 116 17 130 20 8 2 44 6 80 10 36 3 76 8 90 10 181
26 867 27 1031 0 13 -2 59 -6 102 -10 43 -4 88 -8 100 -10 12 -2 49 -6 82 -10
33 -3 105 -12 159 -20 55 -8 116 -15 136 -15 105 0 754 187 1099 317 l126 47
-140 23 c-77 12 -153 25 -170 27 -26 4 -269 38 -360 51 -16 2 -64 7 -105 10
-41 4 -86 9 -100 12 -26 5 -556 13 -562 8z"/>
<path d="M730 6550 c-63 -50 -168 -143 -232 -207 -130 -129 -122 -112 -119
-253 3 -106 3 -106 94 -13 126 131 311 285 474 395 l52 36 -74 66 c-40 36 -75
66 -77 66 -2 -1 -55 -41 -118 -90z"/>
<path d="M8042 6369 c-126 -135 -317 -267 -532 -364 -93 -42 -108 -52 -85 -52
24 0 207 -80 385 -169 l165 -83 39 27 c111 76 258 223 353 352 42 57 108 179
100 186 -2 3 -83 44 -179 93 l-174 89 -72 -79z"/>
<path d="M2873 6403 c9 -2 23 -2 30 0 6 3 -1 5 -18 5 -16 0 -22 -2 -12 -5z"/>
<path d="M4523 6403 c9 -2 23 -2 30 0 6 3 -1 5 -18 5 -16 0 -22 -2 -12 -5z"/>
<path d="M1450 6126 c-152 -80 -288 -162 -431 -257 -168 -112 -409 -307 -409
-330 0 -5 32 -42 70 -83 l71 -74 37 34 c106 95 358 277 517 374 108 66 329
188 439 242 55 26 101 50 103 52 3 2 -20 12 -49 22 -29 9 -90 32 -136 51 -46
18 -86 32 -90 32 -4 -1 -59 -29 -122 -63z"/>
<path d="M2788 5835 c-4 -4 -56 -25 -115 -45 -407 -143 -747 -312 -1096 -545
-154 -102 -309 -224 -302 -236 7 -10 129 -73 211 -108 l50 -22 112 75 c488
325 1079 554 1758 680 45 8 103 18 130 21 27 4 56 8 64 10 8 3 44 7 80 11 36
4 72 8 80 10 8 1 44 3 80 4 l65 2 -45 8 c-25 5 -128 18 -230 29 -102 12 -216
26 -255 31 -38 5 -95 12 -125 15 -30 4 -129 18 -220 31 -91 14 -181 28 -200
31 -19 2 -38 2 -42 -2z"/>
<path d="M8901 5814 c0 -11 3 -14 6 -6 3 7 2 16 -1 19 -3 4 -6 -2 -5 -13z"/>
<path d="M6785 5769 c-335 -74 -932 -149 -1183 -149 -66 0 -77 -5 -32 -14 14
-2 49 -9 78 -15 106 -21 372 -91 518 -136 272 -85 721 -247 769 -279 19 -13
30 -11 96 16 193 77 575 261 607 292 10 10 -8 22 -90 61 -166 78 -313 138
-463 190 -77 27 -141 53 -143 57 -5 11 -7 10 -157 -23z"/>
<path d="M8908 5643 c-4 -139 -7 -155 -43 -262 -21 -63 -57 -151 -81 -197
l-42 -82 24 -23 c36 -34 124 -165 124 -186 1 -34 29 33 56 131 26 99 43 238
38 316 -9 159 -17 226 -39 328 -13 63 -26 116 -28 119 -3 2 -7 -63 -9 -144z"/>
<path d="M122 5636 c-7 -33 -10 -61 -8 -63 6 -7 28 84 24 103 -2 11 -9 -8 -16
-40z"/>
<path d="M4528 5633 c7 -3 16 -2 19 1 4 3 -2 6 -13 5 -11 0 -14 -3 -6 -6z"/>
<path d="M4598 5633 c7 -3 16 -2 19 1 4 3 -2 6 -13 5 -11 0 -14 -3 -6 -6z"/>
<path d="M4688 5623 c6 -2 18 -2 25 0 6 3 1 5 -13 5 -14 0 -19 -2 -12 -5z"/>
<path d="M4758 5623 c7 -3 16 -2 19 1 4 3 -2 6 -13 5 -11 0 -14 -3 -6 -6z"/>
<path d="M260 5134 c-71 -114 -129 -231 -170 -344 l-33 -92 23 -81 c22 -79 40
-117 40 -86 0 25 108 237 164 324 30 46 77 113 104 147 l50 63 -60 75 c-33 41
-61 76 -62 77 -1 1 -26 -36 -56 -83z"/>
<path d="M4509 4916 c-2 -2 -55 -7 -118 -11 -63 -4 -121 -8 -130 -10 -9 -1
-43 -6 -76 -9 -405 -46 -890 -167 -1235 -307 -52 -22 -101 -39 -109 -39 -9 0
-11 -3 -5 -9 5 -5 77 -16 159 -25 735 -78 1525 -30 2295 140 193 43 288 67
523 131 87 24 120 39 85 40 -13 0 -63 9 -104 17 -12 2 -38 7 -58 10 -20 3 -52
9 -72 12 -20 3 -45 7 -56 9 -11 3 -46 7 -77 11 -31 3 -63 8 -72 9 -9 2 -52 6
-95 10 -43 4 -90 9 -104 12 -30 6 -744 15 -751 9z"/>
<path d="M8434 4711 c-49 -48 -130 -119 -181 -160 l-92 -73 57 -48 c31 -26 93
-84 136 -129 l80 -83 74 78 c83 86 192 220 192 235 0 8 -57 96 -151 230 l-25
36 -90 -86z"/>
<path d="M836 4587 c-152 -183 -277 -377 -360 -560 l-35 -76 73 -83 c107 -122
101 -119 127 -56 42 98 120 242 185 339 95 144 276 362 320 387 13 7 -8 23
-97 73 -63 35 -119 65 -124 67 -6 1 -46 -40 -89 -91z"/>
<path d="M27 4160 c3 -36 7 -67 9 -69 8 -9 2 95 -6 114 -5 12 -7 -5 -3 -45z"/>
<path d="M2055 4083 c-231 -175 -409 -352 -572 -568 -66 -88 -167 -245 -161
-251 16 -16 344 -154 365 -154 4 0 19 19 32 43 25 43 130 193 166 236 195 231
454 440 732 588 l92 49 -107 24 c-59 13 -181 43 -271 67 -90 23 -167 43 -170
43 -3 -1 -51 -35 -106 -77z"/>
<path d="M7488 4119 c-32 -18 -432 -146 -545 -175 -62 -15 -113 -30 -113 -33
1 -3 40 -31 88 -61 98 -62 270 -194 351 -269 l54 -50 71 30 c94 41 389 192
448 229 l47 30 -47 43 c-26 24 -60 56 -77 71 -51 47 -243 196 -252 196 -4 0
-16 -5 -25 -11z"/>
<path d="M42 4060 c0 -14 2 -19 5 -12 2 6 2 18 0 25 -3 6 -5 1 -5 -13z"/>
<path d="M3038 3953 c7 -3 16 -2 19 1 4 3 -2 6 -13 5 -11 0 -14 -3 -6 -6z"/>
<path d="M3208 3923 c7 -3 16 -2 19 1 4 3 -2 6 -13 5 -11 0 -14 -3 -6 -6z"/>
<path d="M8902 3826 c-24 -46 -61 -112 -83 -147 l-41 -62 20 -91 19 -91 60
125 c92 191 98 213 82 288 l-14 62 -43 -84z"/>
<path d="M6558 3853 c7 -3 16 -2 19 1 4 3 -2 6 -13 5 -11 0 -14 -3 -6 -6z"/>
<path d="M3978 3823 c7 -3 16 -2 19 1 4 3 -2 6 -13 5 -11 0 -14 -3 -6 -6z"/>
<path d="M4195 3802 c-2 -2 -18 -6 -37 -8 -414 -61 -851 -224 -1183 -442 -156
-102 -247 -177 -370 -303 -162 -166 -155 -158 -136 -163 45 -14 315 -66 339
-66 20 0 48 21 107 78 318 309 828 542 1325 607 30 4 63 9 73 11 97 18 422 24
587 11 418 -32 839 -161 1155 -351 33 -20 68 -36 79 -36 17 0 248 61 370 98
l59 18 -119 79 c-245 163 -518 286 -859 386 -95 28 -128 33 -245 36 -315 8
-728 25 -905 37 -188 14 -233 15 -240 8z"/>
<path d="M5928 3763 c7 -3 16 -2 19 1 4 3 -2 6 -13 5 -11 0 -14 -3 -6 -6z"/>
<path d="M5783 3753 c9 -2 25 -2 35 0 9 3 1 5 -18 5 -19 0 -27 -2 -17 -5z"/>
<path d="M328 3558 c-11 -63 -15 -151 -14 -273 l1 -180 49 -85 c60 -105 139
-229 146 -230 3 0 0 35 -6 78 -12 78 -11 387 1 452 3 19 8 44 10 55 1 11 6 36
9 55 7 34 4 38 -87 128 l-94 93 -15 -93z"/>
<path d="M8344 3129 c-40 -44 -217 -180 -345 -265 -74 -48 -138 -91 -142 -95
-5 -4 5 -50 22 -103 17 -54 32 -108 33 -122 1 -13 6 -24 10 -24 9 0 225 162
308 231 94 78 220 200 220 213 0 18 -72 186 -80 186 -4 0 -15 -10 -26 -21z"/>
<path d="M1151 2868 c-50 -166 -71 -301 -76 -485 -4 -144 -3 -164 13 -179 29
-30 349 -234 366 -234 2 0 -1 23 -4 51 -8 60 -5 295 4 357 3 23 9 61 12 85 8
61 44 214 65 276 11 30 19 56 19 57 0 2 -62 35 -138 73 -76 38 -153 78 -172
90 -19 11 -40 21 -45 21 -6 0 -26 -51 -44 -112z"/>
<path d="M5268 2953 c7 -3 16 -2 19 1 4 3 -2 6 -13 5 -11 0 -14 -3 -6 -6z"/>
<path d="M4778 2863 c7 -3 16 -2 19 1 4 3 -2 6 -13 5 -11 0 -14 -3 -6 -6z"/>
<path d="M4248 2793 c7 -3 16 -2 19 1 4 3 -2 6 -13 5 -11 0 -14 -3 -6 -6z"/>
<path d="M3333 2763 c9 -2 23 -2 30 0 6 3 -1 5 -18 5 -16 0 -22 -2 -12 -5z"/>
<path d="M3883 2763 c9 -2 25 -2 35 0 9 3 1 5 -18 5 -19 0 -27 -2 -17 -5z"/>
<path d="M535 2485 c56 -105 182 -316 197 -330 6 -5 -5 19 -25 55 -19 36 -47
94 -62 130 -22 54 -110 188 -148 225 -5 6 12 -30 38 -80z"/>
<path d="M2213 2461 c-70 -189 -94 -323 -92 -516 1 -77 6 -168 11 -202 l11
-62 66 -20 c107 -32 264 -72 268 -67 2 2 0 21 -6 42 -53 202 -22 516 73 737
19 42 33 77 32 77 -1 0 -76 22 -167 48 l-165 48 -31 -85z"/>
<path d="M8499 2458 c-126 -171 -291 -342 -505 -525 -39 -34 -71 -67 -71 -75
0 -21 -25 -121 -35 -141 -21 -40 30 4 172 150 80 81 183 195 229 253 120 150
290 410 267 410 -2 0 -27 -33 -57 -72z"/>
<path d="M6987 2387 c-150 -50 -177 -62 -171 -76 18 -40 63 -230 64 -269 0
-40 2 -43 23 -36 31 10 349 143 355 148 13 14 -66 297 -82 294 -6 -1 -91 -28
-189 -61z"/>
<path d="M6188 2183 c7 -3 16 -2 19 1 4 3 -2 6 -13 5 -11 0 -14 -3 -6 -6z"/>
<path d="M5488 2093 c6 -2 18 -2 25 0 6 3 1 5 -13 5 -14 0 -19 -2 -12 -5z"/>
<path d="M4558 2083 c6 -2 18 -2 25 0 6 3 1 5 -13 5 -14 0 -19 -2 -12 -5z"/>
<path d="M4608 2083 c7 -3 16 -2 19 1 4 3 -2 6 -13 5 -11 0 -14 -3 -6 -6z"/>
<path d="M5348 2083 c7 -3 16 -2 19 1 4 3 -2 6 -13 5 -11 0 -14 -3 -6 -6z"/>
<path d="M1126 1904 c15 -61 86 -259 123 -342 44 -97 79 -132 255 -255 93 -64
291 -187 302 -187 3 0 -7 17 -23 38 -77 98 -189 308 -236 442 -22 63 -25 66
-92 105 -78 45 -240 152 -298 198 l-38 29 7 -28z"/>
<path d="M7031 1329 c-57 -27 -161 -72 -232 -100 -71 -29 -129 -55 -129 -59 0
-14 -129 -178 -192 -243 -36 -37 -64 -67 -62 -67 12 0 303 114 389 153 202 90
189 80 254 192 53 92 91 163 91 172 0 7 -20 0 -119 -48z"/>
<path d="M2260 1335 c0 -17 106 -192 163 -268 71 -96 107 -137 205 -234 77
-76 80 -77 240 -118 68 -17 299 -65 315 -65 5 0 -30 28 -79 63 -154 108 -423
394 -448 475 -5 13 -55 35 -184 79 -97 33 -185 64 -194 68 -10 4 -18 4 -18 0z"/>
</g>
</svg>
